# xmcd
#
# Track frame offsets:
#	150
#	16367
#	32362
#	44317
#	58120
#	74927
#	89842
#	105445
#	119120
#	134875
#	147682
#	163422
#	174622
#	189412
#	206172
#	219717
#	233522
#	245884
#	261000
#	276750
#
# Disc length: 3890 seconds
#
# Revision: 1
# Processed by: cddbd v1.5.1PL0 Copyright (c) Steve Scherf et al.
# Submitted via: audiograbber 1.82.02
#
DISCID=4c0f3014
DTITLE=George Strait - Top Hits Monthly George Strait Vol 10
DYEAR=1900
DGENRE=Karaoke
TTITLE0=George Strait - Write this down
TTITLE1=George Strait - Meanwhile
TTITLE2=George Strait - We really shouldn't be doing this
TTITLE3=George Strait - A fire I can't put out
TTITLE4=George Strait - Adalia
TTITLE5=George Strait - All my ex's live in Texas
TTITLE6=George Strait - Baby's gotten good at goodbye
TTITLE7=George Strait - Does Fort Worth ever cross your mind
TTITLE8=George Strait - Famous last words of a fool
TTITLE9=George Strait - Fool hearted memory
TTITLE10=George Strait - I cross my heart
TTITLE11=George Strait - If you ain't lovin'
TTITLE12=George Strait - Love without end, Amen
TTITLE13=George Strait - So much like my dad
TTITLE14=George Strait - The chair
TTITLE15=George Strait - The cowboy rides away
TTITLE16=George Strait - The fireman
TTITLE17=George Strait - The man in love with you
TTITLE18=George Strait - What's going on in your world
TTITLE19=George Strait - You're something special to me
EXTD=
EXTT0=
EXTT1=
EXTT2=
EXTT3=
EXTT4=
EXTT5=
EXTT6=
EXTT7=
EXTT8=
EXTT9=
EXTT10=
EXTT11=
EXTT12=
EXTT13=
EXTT14=
EXTT15=
EXTT16=
EXTT17=
EXTT18=
EXTT19=
PLAYORDER=
